<svg width="25" height="24" viewBox="0 0 25 24" fill="none" xmlns="http://www.w3.org/2000/svg">
<path d="M22.8313 11.7613C22.8313 16.8116 19.0886 20.9867 14.2265 21.6642C13.7719 21.7273 13.3067 21.7602 12.8346 21.7602C12.2896 21.7602 11.7544 21.7168 11.2333 21.6327C6.47344 20.8662 2.83789 16.738 2.83789 11.7613C2.83789 6.23884 7.31403 1.76172 12.8353 1.76172C18.3566 1.76172 22.8327 6.23884 22.8327 11.7613H22.8313Z" fill="#35081A"/>
<path d="M14.2269 9.79254V11.9708H16.921L16.4944 14.9051H14.2269V21.6657C13.7722 21.7287 13.3071 21.7617 12.835 21.7617C12.29 21.7617 11.7548 21.7182 11.2337 21.6341V14.9051H8.74902V11.9708H11.2337V9.30559C11.2337 7.65207 12.5737 6.31104 14.2276 6.31104V6.31244C14.2325 6.31244 14.2367 6.31104 14.2416 6.31104H16.9217V8.84877H15.1704C14.65 8.84877 14.2276 9.27126 14.2276 9.79184L14.2269 9.79254Z" fill="#FFF9F2"/>
</svg>
