<svg width="25" height="24" viewBox="0 0 25 24" fill="none" xmlns="http://www.w3.org/2000/svg">
<path d="M12.0823 1.76172H12.0368C6.52814 1.76172 2.0625 6.22868 2.0625 11.7389V11.7845C2.0625 17.2948 6.52814 21.7617 12.0368 21.7617H12.0823C17.591 21.7617 22.0566 17.2948 22.0566 11.7845V11.7389C22.0566 6.22868 17.591 1.76172 12.0823 1.76172Z" fill="#35081A"/>
<path d="M15.1526 5.83301H8.96588C7.25669 5.83301 5.86621 7.22389 5.86621 8.93359V14.5952C5.86621 16.3049 7.25669 17.6958 8.96588 17.6958H15.1526C16.8618 17.6958 18.2523 16.3049 18.2523 14.5952V8.93359C18.2523 7.22389 16.8618 5.83301 15.1526 5.83301ZM6.95968 8.93359C6.95968 7.82719 7.85981 6.9268 8.96588 6.9268H15.1526C16.2587 6.9268 17.1588 7.82719 17.1588 8.93359V14.5952C17.1588 15.7016 16.2587 16.602 15.1526 16.602H8.96588C7.85981 16.602 6.95968 15.7016 6.95968 14.5952V8.93359Z" fill="#FFF9F2"/>
<path d="M12.06 14.647C13.6494 14.647 14.9432 13.3536 14.9432 11.763C14.9432 10.1724 13.6501 8.87891 12.06 8.87891C10.4699 8.87891 9.17676 10.1724 9.17676 11.763C9.17676 13.3536 10.4699 14.647 12.06 14.647ZM12.06 9.97339C13.047 9.97339 13.8497 10.7764 13.8497 11.7637C13.8497 12.751 13.047 13.554 12.06 13.554C11.073 13.554 10.2702 12.751 10.2702 11.7637C10.2702 10.7764 11.073 9.97339 12.06 9.97339Z" fill="#FFF9F2"/>
<path d="M15.2097 9.34562C15.6378 9.34562 15.9868 8.99727 15.9868 8.56832C15.9868 8.13937 15.6385 7.79102 15.2097 7.79102C14.7809 7.79102 14.4326 8.13937 14.4326 8.56832C14.4326 8.99727 14.7809 9.34562 15.2097 9.34562Z" fill="#FFF9F2"/>
</svg>
