<svg width="25" height="24" viewBox="0 0 25 24" fill="none" xmlns="http://www.w3.org/2000/svg">
<path d="M12.3089 1.76172H12.2634C6.7547 1.76172 2.28906 6.22868 2.28906 11.7389V11.7845C2.28906 17.2948 6.7547 21.7617 12.2634 21.7617H12.3089C17.8175 21.7617 22.2832 17.2948 22.2832 11.7845V11.7389C22.2832 6.22868 17.8175 1.76172 12.3089 1.76172Z" fill="#35081A"/>
<path d="M17.1194 8.99708V10.8855C16.7895 10.8532 16.3608 10.7783 15.8866 10.6045C15.2673 10.3775 14.8064 10.067 14.5045 9.8267V13.6434L14.4968 13.6315C14.5017 13.7072 14.5045 13.7842 14.5045 13.862C14.5045 15.7574 12.9627 17.3003 11.0672 17.3003C9.17166 17.3003 7.62988 15.7574 7.62988 13.862C7.62988 11.9666 9.17166 10.423 11.0672 10.423C11.2528 10.423 11.435 10.4377 11.6129 10.4664V12.3275C11.442 12.2665 11.2584 12.2336 11.0672 12.2336C10.1699 12.2336 9.43925 12.9637 9.43925 13.862C9.43925 14.7603 10.1699 15.4904 11.0672 15.4904C11.9645 15.4904 12.6951 14.7596 12.6951 13.862C12.6951 13.8284 12.6944 13.7948 12.6923 13.7611V6.34424H14.5788C14.5858 6.504 14.5921 6.66516 14.5991 6.82492C14.6117 7.13953 14.7238 7.44153 14.9192 7.68888C15.1483 7.97967 15.4866 8.3174 15.9615 8.58717C16.4063 8.83872 16.8238 8.94733 17.1194 8.99848V8.99708Z" fill="#FFF9F2"/>
</svg>
