<svg width="73" height="51" viewBox="0 0 73 51" fill="none" xmlns="http://www.w3.org/2000/svg">
<path d="M18.2608 18.986C16.1461 18.9644 9.41979 19.357 7.63712 19.357C7.35088 19.357 7.29689 19.0037 7.40996 18.8429C9.28533 16.1889 11.6935 13.9857 13.9549 11.8571C16.5382 9.426 19.0849 6.84924 22.1837 5.50324C23.4285 4.96257 24.7131 4.55358 26.0261 4.35098C27.4431 4.13193 29.4855 4.1104 29.9908 2.60993C30.5735 -0.0339434 25.7888 -0.301116 23.4244 0.216768C20.0985 0.94358 17.2401 2.84291 15.2415 4.22056C11.4408 7.16579 3.84157 13.3956 2.54989 18.4618C2.36246 19.2557 2.31254 20.0496 2.48877 20.7713C2.95736 22.6909 4.45378 23.9774 6.09893 23.947C9.77836 24.061 13.4486 24.1192 17.1342 24.4738C17.2605 24.4852 17.3145 24.6814 17.2197 24.7865C15.818 26.3528 8.89314 34.0882 5.26363 38.1971C3.75192 40.0204 2.27995 41.8919 0.790655 43.7431C0.12139 44.5738 -0.125128 45.5348 0.0592513 46.7162C0.441252 50.6478 4.02187 52.1787 5.17704 48.0926C5.22695 47.9115 5.29622 47.7406 5.37874 47.5773C6.82626 44.7257 9.04594 42.5504 11.0242 40.2724C13.5739 37.4158 16.0136 34.3921 18.3657 31.2785C20.0842 29.0081 21.8455 26.7682 22.9365 23.9242C24.1141 20.7346 20.5518 19.0088 18.2618 18.986H18.2608Z" fill="#E61953"/>
<path d="M72.948 20.218V20.2155C72.6994 18.91 70.8944 18.1908 65.2153 19.0544C64.1946 19.2354 63.1749 19.4266 62.1063 19.6242C62.0004 19.6444 61.9128 19.5216 61.9403 19.3925C61.9637 19.2823 61.9851 19.1861 62.0126 19.0924C62.2703 18.1959 62.5219 17.2981 62.7919 16.4092C63.4774 14.1541 65.4282 7.67991 66.5212 5.64762C66.8166 5.09935 67.3066 4.79039 68.0879 4.79039C68.5371 4.79039 68.8641 4.97272 68.8733 5.2209C68.9079 6.36937 69.7636 6.82521 70.5704 6.38329C70.9005 6.29086 71.202 5.9819 71.4057 5.50834C71.5147 5.25509 71.7072 4.3662 71.6665 3.91416C71.6084 3.27092 71.4485 2.46814 71.1572 1.95405C70.0183 -0.0491119 67.7029 -0.0908973 66.619 0.449779C63.6679 1.91986 62.362 6.03382 61.6622 8.10409C60.8493 10.5074 58.7009 17.0955 57.9613 19.5355C57.7108 20.3599 57.3094 20.722 56.6595 20.8803C55.6133 21.1373 54.562 21.3779 53.6167 22.0604C52.539 22.8416 52.4707 23.9268 53.5087 24.7701C54.0109 25.1766 54.5722 25.4678 55.1172 25.8046C55.1794 25.8439 55.2099 25.935 55.1855 26.0173C55.049 26.4896 54.6792 27.7204 54.4785 28.4497C54.2952 29.1158 53.8072 29.735 53.522 30.0591C51.7719 32.0496 46.8823 33.7172 45.6171 31.048C45.2158 30.2009 45.3604 29.3981 45.4521 28.8207C45.5713 28.0775 45.9074 27.7039 46.5136 27.5026C48.118 26.9746 49.0663 26.7758 50.574 25.4007C51.4918 24.565 52.922 22.8302 52.3852 20.3282C52.0358 18.6973 50.3814 17.3197 48.338 17.6527C47.6534 17.7641 46.481 18.3415 45.503 19.5026C44.3367 20.8866 43.7387 21.678 42.389 23.7407C41.6667 24.8448 40.8864 25.6982 40.4199 25.9705C38.3408 27.1797 37.971 27.3304 35.8726 28.4852V28.4953C35.8644 28.4991 35.8563 28.5029 35.8481 28.508C35.6963 28.5802 35.458 28.5954 35.3286 28.4827C35.2338 28.4016 35.2787 28.0977 35.3123 27.9078C35.6006 26.3288 36.0101 24.7701 36.171 23.1721C36.3411 21.4767 35.7065 20.5346 34.1653 20.5485C32.677 20.5612 31.3639 21.3247 30.2607 22.5757C29.7636 23.1405 29.3113 23.7673 28.8193 24.3421C28.8061 24.356 28.7928 24.3687 28.7785 24.3814C28.6023 24.5207 28.367 24.351 28.3558 24.0914C28.3548 24.0458 28.3527 23.999 28.3558 23.9547C28.3599 23.8293 28.4179 23.7052 28.4577 23.5837C29.84 19.1987 31.3028 14.8594 32.9235 10.5998C33.4787 9.13733 33.8963 7.58367 33.8373 5.91859C33.8067 5.05629 33.0783 4.41812 32.4019 4.61691C31.6176 4.84863 31.039 5.44376 30.6651 6.29086C30.114 7.54062 29.6026 8.81824 29.1076 10.1047C26.6098 16.5865 24.1426 23.0886 21.6224 29.5564C20.7127 31.8888 19.8764 34.4529 19.8764 36.4092C19.8764 37.6628 20.1352 38.7593 21.3239 38.9898C22.1338 39.1468 23.0567 39.1291 23.6832 38.1477C25.1888 35.7951 26.7208 33.4665 28.1999 31.0885C29.5089 28.9841 30.7588 26.8214 32.0362 24.6853C32.2196 24.3801 32.3897 24.1598 32.7167 24.218C32.7992 24.2332 32.9143 24.332 32.9143 24.4915C32.9143 24.6827 32.8624 24.8461 32.7972 25.0195C32.403 26.0756 31.9823 27.1164 31.587 28.1724C31.1857 29.2424 30.7568 30.2946 30.6295 31.4963C30.4767 32.9537 31.1419 33.9413 32.298 33.8907C33.7323 33.8274 35.0016 33.1082 36.2851 32.3978C37.479 31.7369 41.0046 29.683 41.1727 29.6033C41.2796 29.5526 41.3897 29.6678 41.3683 29.8071C41.1442 31.2316 41.1869 32.4611 41.8389 33.6248C42.1577 34.1959 42.5041 34.7834 42.937 35.2076C44.3468 36.5852 46.0083 36.6536 47.7044 36.4763C48.7546 36.3674 49.7122 35.9496 50.5994 35.2607C50.8806 35.0442 51.1607 34.829 51.4419 34.6112C51.6293 34.4656 51.9298 34.2402 52.215 34.0249C52.2965 33.9629 52.3953 34.0616 52.3648 34.1743C52.2731 34.5073 52.1427 34.9809 52.1264 35.0316C51.8554 35.8394 50.3336 41.8603 49.9505 43.1227C49.2395 45.4665 48.9125 47.4203 49.1285 48.7688C49.3292 50.0135 50.1115 50.5288 51.0751 50.6555C51.9818 50.7745 52.7559 50.3617 53.1206 48.9841C53.5312 47.4304 53.8826 45.8565 54.2697 44.2914C55.5817 38.9822 56.958 35.4836 58.6907 30.3744C59.2754 28.6536 59.9447 26.9771 60.5304 25.2551C60.6842 24.8043 60.8737 24.622 61.2445 24.5789C62.2306 24.4637 63.2156 24.3155 64.1986 24.1762C66.0098 23.9192 67.821 23.6482 69.6332 23.4026C70.6285 23.2684 73.4054 22.6137 72.95 20.2168L72.948 20.218ZM46.0297 22.7543C46.5186 21.9325 47.1451 21.2728 48.23 20.7169C48.5213 20.5662 49.0062 20.4016 49.4779 20.4016C49.9556 20.4016 50.2633 20.9132 50.1033 21.4919C49.9414 22.1832 49.266 22.7707 48.4307 23.3266C47.8409 23.7204 46.976 24.1256 46.5757 24.256C46.2446 24.3636 45.6701 24.47 45.6059 24.2775C45.5081 23.9825 45.501 23.6444 46.0297 22.7555V22.7543Z" fill="#E61953"/>
</svg>
